<?xml version="1.0" encoding="utf-8"?>
<!-- Generator: Adobe Illustrator 28.2.0, SVG Export Plug-In . SVG Version: 6.00 Build 0)  -->
<svg version="1.1" id="Слой_1" xmlns="http://www.w3.org/2000/svg" xmlns:xlink="http://www.w3.org/1999/xlink" x="0px" y="0px"
	 viewBox="0 0 16 16" style="enable-background:new 0 0 16 16;" xml:space="preserve">
<style type="text/css">
	.st0{fill:#3C3C3C;}
</style>
<g>
	<g>
		<path class="st0" d="M8,15.4H1.3c-0.4,0-0.8-0.3-0.8-0.8V8c0-4.1,3.3-7.4,7.4-7.4c4.1,0,7.4,3.3,7.4,7.4
			C15.4,12.1,12.1,15.4,8,15.4z M2.1,13.9H8c3.3,0,5.9-2.7,5.9-5.9c0-3.3-2.7-5.9-5.9-5.9C4.7,2.1,2.1,4.7,2.1,8V13.9z"/>
		<path class="st0" d="M10.7,6.7h-6C4.2,6.7,3.9,6.4,3.9,6s0.3-0.8,0.8-0.8h6c0.4,0,0.8,0.3,0.8,0.8S11.1,6.7,10.7,6.7z"/>
		<path class="st0" d="M10.7,9.4h-6c-0.4,0-0.8-0.3-0.8-0.7c0-0.4,0.3-0.8,0.8-0.8h6c0.4,0,0.8,0.3,0.8,0.8
			C11.4,9.1,11.1,9.4,10.7,9.4z"/>
		<path class="st0" d="M8,12.1H4.7c-0.4,0-0.8-0.3-0.8-0.8s0.3-0.8,0.8-0.8H8c0.4,0,0.8,0.3,0.8,0.8S8.4,12.1,8,12.1z"/>
	</g>
</g>
</svg>
