<?xml version="1.0" standalone="no"?>
<!DOCTYPE svg PUBLIC "-//W3C//DTD SVG 20010904//EN"
 "http://www.w3.org/TR/2001/REC-SVG-20010904/DTD/svg10.dtd">
<svg version="1.0" xmlns="http://www.w3.org/2000/svg"
 width="14.000000pt" height="15.000000pt" viewBox="0 0 14.000000 15.000000"
 preserveAspectRatio="xMidYMid meet">

<g transform="translate(0.000000,15.000000) scale(0.100000,-0.100000)"
fill="#000000" stroke="none">
<path d="M42 137 c-12 -14 -5 -57 9 -57 20 0 7 -16 -21 -27 -20 -8 -30 -18
-30 -32 0 -19 6 -21 70 -21 39 0 70 4 70 9 0 23 -15 43 -37 52 -22 8 -23 10
-9 25 19 18 19 20 6 45 -12 22 -42 25 -58 6z m48 -28 c0 -12 -7 -19 -20 -19
-19 0 -28 28 -14 43 11 11 34 -5 34 -24z m24 -75 c9 -8 16 -17 16 -20 0 -2
-27 -4 -60 -4 -58 0 -60 1 -50 20 13 25 71 27 94 4z"/>
</g>
</svg>
