<svg width="15.000000" height="15.000000" viewBox="0 0 15 15" fill="none" xmlns="http://www.w3.org/2000/svg" xmlns:xlink="http://www.w3.org/1999/xlink">
	<desc>
			Created with Pixso.
	</desc>
	<defs>
		<clipPath id="clip8_14">
			<rect id="Icon" width="15.000000" height="15.000000" transform="matrix(1 0 0 -1 0 15)" fill="white" fill-opacity="0"/>
		</clipPath>
	</defs>
	<g clip-path="url(#clip8_14)">
		<path id="Vector" d="M7.5 8.45C5.23 8.45 3.5 8.96 2.3 10C1.1 11.03 0.5 12.51 0.5 14.45C0.5 14.61 0.55 14.75 0.67 14.85C0.79 14.95 0.91 15 1.04 15L13.95 15C14.08 15 14.2 14.95 14.32 14.85C14.44 14.75 14.5 14.61 14.5 14.45C14.5 12.51 13.9 11.03 12.7 10C11.5 8.96 9.76 8.45 7.5 8.45ZM1.65 13.9C1.85 11 3.8 9.54 7.5 9.54C11.2 9.54 13.15 11 13.35 13.9L1.65 13.9ZM7.5 0C6.83 0 6.21 0.15 5.65 0.47C5.08 0.79 4.64 1.23 4.32 1.79C4 2.36 3.85 3 3.85 3.7C3.85 4.39 4.01 5.05 4.35 5.67C4.68 6.29 5.12 6.77 5.67 7.12C6.22 7.47 6.83 7.64 7.5 7.64C8.16 7.64 8.77 7.47 9.32 7.12C9.87 6.77 10.31 6.29 10.65 5.67C10.98 5.05 11.15 4.39 11.15 3.7C11.15 3 10.99 2.36 10.67 1.79C10.35 1.23 9.91 0.79 9.35 0.47C8.78 0.15 8.16 0 7.5 0ZM7.5 6.54C6.8 6.54 6.2 6.27 5.7 5.72C5.2 5.17 4.94 4.5 4.94 3.72C4.94 2.94 5.19 2.3 5.67 1.82C6.15 1.34 6.76 1.1 7.5 1.1C8.23 1.1 8.84 1.35 9.32 1.85C9.8 2.35 10.05 2.98 10.05 3.75C10.05 4.51 9.8 5.17 9.3 5.72C8.8 6.27 8.2 6.54 7.5 6.54Z" fill="#000000" fill-opacity="1.000000" fill-rule="nonzero"/>
	</g>
</svg>
