<svg width="16.000000" height="16.000000" viewBox="0 0 16 16" fill="none" xmlns="http://www.w3.org/2000/svg" xmlns:xlink="http://www.w3.org/1999/xlink">
	<desc>
			Created with Pixso.
	</desc>
	<defs>
		<clipPath id="clip8_96">
			<rect id="Icon" width="16.000000" height="16.000000" transform="matrix(1 0 0 -1 0 16)" fill="white" fill-opacity="0"/>
		</clipPath>
	</defs>
	<g clip-path="url(#clip8_96)">
		<path id="Vector" d="M7.3 1.27C6.2 1.27 5.2 1.54 4.29 2.07C3.38 2.61 2.65 3.34 2.1 4.26C1.55 5.19 1.28 6.19 1.28 7.27C1.28 8.36 1.55 9.36 2.1 10.29C2.65 11.21 3.38 11.94 4.29 12.48C5.2 13.01 6.2 13.28 7.3 13.28C7.98 13.28 8.64 13.16 9.28 12.93C9.92 12.7 10.5 12.39 11.04 12L13.54 14.45C13.65 14.59 13.8 14.66 14 14.66C14.19 14.66 14.35 14.6 14.48 14.48C14.6 14.35 14.66 14.19 14.66 14C14.66 13.8 14.59 13.65 14.45 13.54L12 11.04C12.39 10.5 12.7 9.91 12.93 9.27C13.16 8.63 13.28 7.98 13.28 7.3C13.28 6.2 13.01 5.19 12.48 4.26C11.94 3.34 11.21 2.61 10.29 2.07C9.36 1.54 8.37 1.27 7.3 1.27ZM7.3 2.61C8.16 2.61 8.94 2.82 9.65 3.25C10.36 3.67 10.92 4.24 11.33 4.95C11.74 5.67 11.94 6.44 11.94 7.27C11.94 8.11 11.74 8.89 11.33 9.62C10.92 10.35 10.36 10.92 9.65 11.33C8.94 11.74 8.16 11.94 7.3 11.94C6.45 11.94 5.67 11.74 4.96 11.33C4.24 10.92 3.68 10.35 3.25 9.62C2.82 8.89 2.61 8.11 2.61 7.27C2.61 6.44 2.82 5.67 3.25 4.95C3.68 4.24 4.24 3.67 4.96 3.25C5.67 2.82 6.45 2.61 7.3 2.61Z" fill="#FFFFFF" fill-opacity="1.000000" fill-rule="nonzero"/>
	</g>
</svg>
