<svg width="112.000000" height="42.093750" viewBox="0 0 112 42.0938" fill="none" xmlns="http://www.w3.org/2000/svg" xmlns:xlink="http://www.w3.org/1999/xlink">
	<desc>
			Created with Pixso.
	</desc>
	<defs/>
	<path id="path" d="M57.42 11.6L57.62 11.59C60.44 11.55 63.27 11.57 66.09 11.57C69.3 11.56 72.78 11.26 75.9 12.13C76.13 12.19 76.36 12.27 76.59 12.35C76.81 12.43 77.04 12.52 77.26 12.61C77.48 12.71 77.7 12.81 77.91 12.92C78.13 13.03 78.34 13.14 78.55 13.26C78.75 13.39 78.96 13.51 79.16 13.65C79.36 13.78 79.55 13.92 79.74 14.07C79.93 14.22 80.12 14.37 80.3 14.53C80.48 14.69 80.66 14.85 80.83 15.02C80.96 15.16 81.1 15.3 81.22 15.44C81.35 15.58 81.48 15.72 81.6 15.87C81.72 16.02 81.84 16.17 81.95 16.32C82.06 16.47 82.17 16.63 82.28 16.79C82.39 16.94 82.49 17.1 82.59 17.27C82.69 17.43 82.78 17.6 82.87 17.77C82.96 17.93 83.05 18.1 83.13 18.28C83.21 18.45 83.29 18.62 83.36 18.8C83.43 18.97 83.5 19.15 83.57 19.33C83.63 19.51 83.69 19.69 83.75 19.87C83.81 20.06 83.86 20.24 83.9 20.43C83.95 20.61 83.99 20.8 84.03 20.98C84.07 21.17 84.1 21.36 84.13 21.55C84.16 21.74 84.18 21.93 84.2 22.12C84.22 22.31 84.24 22.5 84.25 22.69C84.26 22.88 84.26 23.07 84.26 23.26C84.26 23.45 84.26 23.64 84.25 23.83C84.24 24.02 84.22 24.21 84.2 24.39C84.18 24.58 84.16 24.77 84.13 24.96C84.1 25.14 84.07 25.33 84.03 25.52C83.99 25.7 83.95 25.89 83.9 26.07C83.86 26.25 83.8 26.43 83.75 26.62C83.69 26.8 83.63 26.98 83.57 27.15C83.5 27.33 83.43 27.51 83.36 27.68C83.28 27.86 83.21 28.03 83.12 28.2C83.04 28.37 82.95 28.54 82.86 28.7C82.77 28.87 82.68 29.03 82.58 29.19C82.48 29.35 82.38 29.51 82.27 29.67C82.17 29.83 82.06 29.98 81.94 30.13C81.83 30.28 81.71 30.43 81.59 30.57C81.47 30.72 81.34 30.86 81.21 31C81.08 31.14 80.95 31.27 80.82 31.4C76.8 35.36 71.89 34.98 66.73 34.9C66.65 32.45 66.71 29.99 66.72 27.54C69.38 27.52 72.35 28.01 74.88 26.98C75.26 26.77 75.63 26.49 75.93 26.18C76.78 25.31 77.11 24.19 77.09 22.99C77.06 21.87 76.69 20.83 75.85 20.07C75.31 19.56 74.64 19.24 73.92 19.06C71.82 18.54 67.02 18.82 64.73 18.89C64.72 26.6 64.87 34.33 64.7 42.03C62.27 42.06 59.84 42.06 57.41 42.03L57.42 11.6Z" fill="#FFFFFF" fill-opacity="1.000000" fill-rule="nonzero"/>
	<path id="path" d="M41.1 11.61C42.75 11.45 44.5 11.56 46.16 11.57L55.48 11.61C55.61 14 55.5 16.44 55.47 18.83C53.59 18.88 51.71 18.91 49.82 18.87C46.97 18.83 41.89 18.49 39.32 19.29C39.18 19.34 39.03 19.39 38.88 19.45C38.74 19.51 38.6 19.57 38.46 19.63C38.31 19.7 38.17 19.76 38.04 19.84C37.9 19.91 37.76 19.99 37.63 20.07C37.5 20.15 37.37 20.23 37.24 20.32C37.11 20.41 36.99 20.51 36.87 20.6C36.74 20.7 36.62 20.8 36.51 20.9C36.39 21 36.28 21.11 36.17 21.22C34.65 22.72 33.87 24.63 33.87 26.77C33.86 26.9 33.87 27.02 33.87 27.15C33.88 27.28 33.89 27.4 33.9 27.53C33.91 27.66 33.92 27.79 33.94 27.91C33.96 28.04 33.98 28.16 34 28.29C34.03 28.41 34.06 28.54 34.09 28.66C34.12 28.79 34.15 28.91 34.19 29.03C34.22 29.15 34.26 29.28 34.3 29.4C34.35 29.52 34.39 29.64 34.44 29.75C34.49 29.87 34.54 29.99 34.59 30.1C34.65 30.22 34.71 30.33 34.77 30.45C34.83 30.56 34.89 30.67 34.95 30.78C35.02 30.89 35.09 30.99 35.16 31.1C35.23 31.21 35.3 31.31 35.38 31.41C35.45 31.52 35.53 31.62 35.61 31.71C35.69 31.81 35.78 31.91 35.86 32C35.95 32.1 36.04 32.19 36.13 32.28C36.26 32.41 36.4 32.54 36.54 32.66C36.68 32.78 36.82 32.9 36.97 33.02C37.12 33.13 37.27 33.24 37.43 33.34C37.58 33.44 37.74 33.54 37.9 33.63C38.06 33.73 38.23 33.81 38.4 33.9C38.57 33.98 38.74 34.05 38.91 34.13C39.08 34.2 39.26 34.26 39.43 34.32C39.61 34.38 39.79 34.43 39.97 34.48C42.23 35.06 44.82 34.77 47.13 34.76L55.5 34.74C55.64 37.17 55.55 39.63 55.51 42.07L47.09 42.09C41.58 42.09 36.44 42.26 31.96 38.45C31.86 38.37 31.77 38.29 31.68 38.21C31.58 38.13 31.49 38.04 31.4 37.96C31.31 37.87 31.22 37.79 31.13 37.7C31.04 37.61 30.95 37.53 30.86 37.44C30.77 37.35 30.69 37.26 30.6 37.16C30.52 37.07 30.43 36.98 30.35 36.89C30.27 36.79 30.19 36.7 30.11 36.6C30.03 36.51 29.95 36.41 29.87 36.31C29.79 36.21 29.71 36.12 29.64 36.02C29.56 35.92 29.49 35.82 29.42 35.71C29.34 35.61 29.27 35.51 29.2 35.41C29.13 35.3 29.06 35.2 28.99 35.09C28.92 34.99 28.86 34.88 28.79 34.78C28.73 34.67 28.66 34.56 28.6 34.45C28.54 34.35 28.48 34.24 28.42 34.13C28.36 34.02 28.3 33.91 28.24 33.8C28.18 33.68 28.13 33.57 28.07 33.46C28.02 33.35 27.96 33.23 27.91 33.12C27.86 33.01 27.81 32.89 27.76 32.78C27.71 32.66 27.66 32.55 27.62 32.43C27.57 32.31 27.53 32.2 27.49 32.08C27.44 31.96 27.4 31.84 27.36 31.72C27.32 31.6 27.28 31.49 27.24 31.37C27.21 31.25 27.17 31.13 27.14 31.01C27.1 30.89 27.07 30.76 27.04 30.64C27.01 30.52 26.98 30.4 26.95 30.28C26.92 30.16 26.89 30.03 26.87 29.91C26.84 29.79 26.82 29.67 26.8 29.54C26.77 29.42 26.75 29.3 26.73 29.17C26.72 29.05 26.7 28.92 26.68 28.8C26.67 28.68 26.65 28.55 26.64 28.43C26.62 28.3 26.61 28.18 26.6 28.05C26.27 24 27.47 20.05 30.09 16.93C32.92 13.58 36.8 11.96 41.1 11.61Z" fill="#FFFFFF" fill-opacity="1.000000" fill-rule="nonzero"/>
	<path id="path" d="M48.6 0.07C49.94 -0.08 51.42 0.02 52.77 0.12C60.22 0.67 67.37 3.1 74.26 5.86C76.46 6.74 78.77 8.05 81.04 8.64C83.04 9.16 85.24 9.18 87.3 9.43C93.41 10.19 104.84 11.71 109.55 15.48C110.91 16.56 111.76 17.92 111.95 19.67C112.28 22.67 110.77 29.5 108.84 31.84C107.74 33.19 106.04 33.54 104.39 33.69C105.86 32.96 107.23 30.26 107.89 28.74C108.88 26.45 110.41 21.29 109.44 18.91C107.51 14.15 91.46 12.57 86.51 12.11C84.4 11.92 82.13 12.01 80.08 11.53C78.58 11.17 77.2 10.2 75.84 9.49C74.44 8.78 73.02 8.11 71.57 7.5C67.16 5.58 62.57 3.92 57.83 3.04C45.99 0.85 34.06 3.97 22.64 6.87C24.65 7.05 26.7 7.54 28.68 7.95L38.54 10.06C36.72 10.44 35.14 11.29 33.39 11.83C28.93 10.41 24.46 9.57 19.86 8.81C18.2 8.53 16.42 8.1 14.73 8.23C13.42 8.33 12.09 8.69 10.81 8.97L3.84 10.59C4 10.34 4.17 10.08 4.38 9.86C5.58 8.61 9.06 7.78 10.75 7.22C20.1 4.18 29.62 1.85 39.39 0.75C42.45 0.4 45.52 0.23 48.6 0.07Z" fill="#FFFFFF" fill-opacity="1.000000" fill-rule="nonzero"/>
	<path id="path" d="M16.04 23.04C16.17 23.03 16.29 23.02 16.42 23.01C16.55 23 16.68 23 16.81 23C16.93 23 17.06 23 17.19 23.01C17.32 23.02 17.44 23.03 17.57 23.04C17.7 23.05 17.83 23.07 17.95 23.09C18.08 23.11 18.21 23.13 18.33 23.15C18.46 23.18 18.58 23.21 18.71 23.24C18.83 23.27 18.95 23.3 19.08 23.34C19.2 23.38 19.32 23.42 19.44 23.46C19.56 23.51 19.68 23.55 19.8 23.6C19.92 23.65 20.04 23.71 20.15 23.76C20.27 23.82 20.38 23.87 20.49 23.93C20.61 24 20.72 24.06 20.83 24.13C20.94 24.19 21.05 24.26 21.15 24.33C21.26 24.41 21.36 24.48 21.47 24.56C21.57 24.63 21.67 24.71 21.77 24.79C21.87 24.88 21.96 24.96 22.06 25.05C22.15 25.13 22.24 25.22 22.34 25.31C22.43 25.41 22.51 25.5 22.6 25.6C22.68 25.69 22.77 25.79 22.85 25.89C22.93 25.99 23.01 26.09 23.08 26.19C23.16 26.3 23.23 26.4 23.3 26.51C23.38 26.62 23.44 26.73 23.51 26.84C23.57 26.95 23.64 27.06 23.7 27.17C23.76 27.29 23.81 27.4 23.87 27.52C23.92 27.64 23.97 27.75 24.02 27.87C24.07 27.99 24.12 28.11 24.16 28.23C24.2 28.36 24.24 28.48 24.28 28.6C24.31 28.73 24.35 28.85 24.38 28.97C24.41 29.1 24.44 29.23 24.46 29.35C24.49 29.48 24.51 29.6 24.52 29.73C24.54 29.86 24.56 29.99 24.57 30.12C24.58 30.24 24.59 30.37 24.6 30.5C24.6 30.63 24.6 30.76 24.6 30.89C24.6 31.02 24.6 31.14 24.59 31.27C24.58 31.4 24.57 31.53 24.56 31.66C24.55 31.79 24.53 31.91 24.51 32.04C24.49 32.17 24.47 32.29 24.44 32.42C24.42 32.55 24.39 32.67 24.36 32.8C24.33 32.92 24.29 33.05 24.25 33.17C24.21 33.29 24.17 33.41 24.13 33.53C24.09 33.66 24.04 33.78 23.99 33.89C23.94 34.01 23.89 34.13 23.83 34.25C23.77 34.36 23.72 34.48 23.65 34.59C23.59 34.7 23.53 34.81 23.46 34.92C23.4 35.03 23.33 35.14 23.26 35.25C23.18 35.36 23.11 35.46 23.03 35.56C22.95 35.67 22.88 35.77 22.79 35.87C22.71 35.96 22.63 36.06 22.54 36.16C22.45 36.25 22.36 36.34 22.27 36.43C22.18 36.52 22.09 36.61 21.99 36.7C21.9 36.78 21.8 36.87 21.7 36.95C21.6 37.03 21.5 37.11 21.39 37.18C21.29 37.26 21.19 37.33 21.08 37.4C20.97 37.47 20.86 37.54 20.75 37.61C20.64 37.67 20.53 37.73 20.42 37.79C20.3 37.85 20.19 37.91 20.07 37.96C19.95 38.02 19.84 38.07 19.72 38.12C19.6 38.16 19.48 38.21 19.36 38.25C19.24 38.29 19.12 38.33 18.99 38.37C18.87 38.41 18.75 38.44 18.62 38.47C18.5 38.5 18.37 38.53 18.25 38.55C18.12 38.57 17.99 38.59 17.87 38.61C17.74 38.63 17.61 38.64 17.48 38.66C17.36 38.67 17.23 38.67 17.1 38.68C16.98 38.68 16.85 38.69 16.72 38.68C16.59 38.68 16.47 38.68 16.34 38.67C16.21 38.66 16.09 38.65 15.96 38.64C15.83 38.63 15.71 38.61 15.58 38.59C15.46 38.57 15.33 38.55 15.21 38.52C15.08 38.49 14.96 38.46 14.83 38.43C14.71 38.4 14.59 38.36 14.47 38.33C14.35 38.29 14.22 38.25 14.11 38.2C13.99 38.16 13.87 38.11 13.75 38.06C13.63 38.01 13.52 37.96 13.4 37.9C13.29 37.85 13.17 37.79 13.06 37.73C12.95 37.67 12.84 37.6 12.73 37.54C12.62 37.47 12.52 37.4 12.41 37.33C12.31 37.26 12.2 37.18 12.1 37.1C12 37.03 11.9 36.95 11.8 36.87C11.7 36.78 11.61 36.7 11.51 36.61C11.42 36.53 11.33 36.44 11.24 36.35C11.15 36.26 11.06 36.16 10.98 36.07C10.89 35.97 10.81 35.87 10.73 35.77C10.65 35.67 10.57 35.57 10.5 35.47C10.42 35.37 10.35 35.26 10.28 35.15C10.21 35.05 10.14 34.94 10.08 34.83C10.01 34.72 9.95 34.61 9.89 34.49C9.83 34.38 9.78 34.27 9.72 34.15C9.67 34.03 9.62 33.92 9.57 33.8C9.52 33.68 9.48 33.56 9.44 33.44C9.39 33.32 9.35 33.2 9.32 33.07C9.28 32.95 9.25 32.83 9.22 32.7C9.19 32.58 9.16 32.46 9.14 32.33C9.11 32.2 9.09 32.08 9.07 31.95C9.06 31.82 9.04 31.7 9.03 31.57C9.02 31.44 9.01 31.31 9 31.19C9 31.06 9 30.93 9 30.8C9 30.68 9 30.55 9.01 30.42C9.01 30.29 9.02 30.16 9.04 30.04C9.05 29.91 9.07 29.78 9.09 29.66C9.11 29.53 9.13 29.4 9.15 29.28C9.18 29.15 9.21 29.03 9.24 28.9C9.27 28.78 9.3 28.66 9.34 28.54C9.38 28.41 9.42 28.29 9.46 28.17C9.51 28.05 9.55 27.93 9.6 27.81C9.65 27.7 9.7 27.58 9.76 27.46C9.81 27.35 9.87 27.23 9.93 27.12C9.99 27.01 10.05 26.9 10.12 26.79C10.19 26.68 10.25 26.57 10.33 26.46C10.4 26.36 10.47 26.25 10.55 26.15C10.62 26.05 10.7 25.95 10.78 25.85C10.86 25.75 10.95 25.65 11.03 25.56C11.12 25.47 11.21 25.37 11.3 25.28C11.39 25.19 11.48 25.1 11.57 25.02C11.67 24.93 11.76 24.85 11.86 24.77C11.96 24.69 12.06 24.61 12.16 24.53C12.27 24.46 12.37 24.38 12.48 24.31C12.58 24.24 12.69 24.17 12.8 24.11C12.91 24.04 13.02 23.98 13.13 23.92C13.24 23.86 13.36 23.8 13.47 23.75C13.59 23.69 13.71 23.64 13.82 23.59C13.94 23.54 14.06 23.5 14.18 23.46C14.3 23.41 14.42 23.37 14.54 23.34C14.66 23.3 14.79 23.26 14.91 23.23C15.03 23.2 15.16 23.17 15.28 23.15C15.41 23.13 15.53 23.1 15.66 23.08C15.78 23.07 15.91 23.05 16.04 23.04ZM17.29 35.26C17.36 35.25 17.44 35.24 17.51 35.23C17.58 35.22 17.65 35.2 17.72 35.19C17.79 35.17 17.86 35.16 17.93 35.14C18 35.12 18.07 35.1 18.14 35.08C18.21 35.05 18.28 35.03 18.34 35.01C18.41 34.98 18.48 34.95 18.55 34.92C18.61 34.9 18.68 34.87 18.74 34.83C18.81 34.8 18.87 34.77 18.94 34.73C19 34.7 19.06 34.66 19.12 34.62C19.18 34.58 19.24 34.54 19.3 34.5C19.36 34.46 19.42 34.42 19.48 34.38C19.54 34.33 19.59 34.29 19.65 34.24C19.7 34.19 19.76 34.14 19.81 34.09C19.86 34.04 19.92 33.99 19.97 33.94C20.02 33.89 20.07 33.84 20.11 33.78C20.16 33.73 20.21 33.67 20.25 33.61C20.3 33.56 20.34 33.5 20.38 33.44C20.43 33.38 20.47 33.32 20.51 33.26C20.55 33.2 20.58 33.14 20.62 33.07C20.66 33.01 20.69 32.95 20.72 32.88C20.76 32.82 20.79 32.75 20.82 32.69C20.85 32.62 20.88 32.55 20.9 32.49C20.93 32.42 20.95 32.35 20.98 32.28C21 32.21 21.02 32.14 21.04 32.07C21.06 32 21.08 31.93 21.1 31.86C21.11 31.79 21.13 31.72 21.14 31.65C21.15 31.58 21.16 31.51 21.17 31.43C21.18 31.36 21.19 31.29 21.2 31.22C21.2 31.14 21.21 31.07 21.21 31C21.21 30.93 21.21 30.85 21.21 30.78C21.21 30.71 21.21 30.64 21.2 30.56C21.2 30.49 21.19 30.42 21.18 30.35C21.17 30.27 21.16 30.2 21.15 30.13C21.14 30.06 21.13 29.99 21.11 29.92C21.1 29.84 21.08 29.77 21.06 29.7C21.04 29.63 21.02 29.56 21 29.49C20.98 29.43 20.95 29.36 20.93 29.29C20.9 29.22 20.87 29.15 20.84 29.09C20.81 29.02 20.78 28.95 20.75 28.89C20.72 28.82 20.69 28.76 20.65 28.7C20.62 28.63 20.58 28.57 20.54 28.51C20.5 28.45 20.46 28.39 20.42 28.33C20.38 28.27 20.34 28.21 20.29 28.15C20.25 28.09 20.2 28.04 20.16 27.98C20.11 27.93 20.06 27.87 20.01 27.82C19.96 27.77 19.91 27.71 19.86 27.66C19.81 27.61 19.75 27.57 19.7 27.52C19.64 27.47 19.59 27.42 19.53 27.38C19.47 27.33 19.42 27.29 19.36 27.25C19.3 27.21 19.24 27.16 19.18 27.13C19.12 27.09 19.05 27.05 18.99 27.01C18.93 26.98 18.87 26.94 18.8 26.91C18.74 26.88 18.67 26.85 18.6 26.82C18.54 26.79 18.47 26.76 18.4 26.73C18.34 26.71 18.27 26.68 18.2 26.66C18.13 26.63 18.06 26.61 17.99 26.59C17.92 26.57 17.85 26.56 17.78 26.54C17.71 26.52 17.64 26.51 17.57 26.5C17.5 26.48 17.43 26.47 17.36 26.46C17.28 26.46 17.21 26.45 17.14 26.44C17.07 26.44 17 26.43 16.92 26.43C16.85 26.43 16.78 26.43 16.71 26.43C16.63 26.43 16.56 26.44 16.49 26.44C16.42 26.45 16.35 26.45 16.27 26.46C16.2 26.47 16.13 26.48 16.06 26.49C15.99 26.51 15.92 26.52 15.85 26.54C15.78 26.55 15.71 26.57 15.64 26.59C15.57 26.61 15.5 26.63 15.43 26.65C15.37 26.67 15.3 26.7 15.23 26.72C15.16 26.75 15.1 26.78 15.03 26.8C14.97 26.83 14.9 26.86 14.84 26.9C14.77 26.93 14.71 26.96 14.65 27C14.58 27.03 14.52 27.07 14.46 27.11C14.4 27.15 14.34 27.19 14.28 27.23C14.22 27.27 14.16 27.31 14.11 27.36C14.05 27.4 13.99 27.45 13.94 27.49C13.89 27.54 13.83 27.59 13.78 27.64C13.73 27.69 13.68 27.74 13.63 27.79C13.58 27.84 13.53 27.9 13.48 27.95C13.43 28.01 13.39 28.06 13.34 28.12C13.3 28.17 13.26 28.23 13.22 28.29C13.17 28.35 13.13 28.41 13.09 28.47C13.06 28.53 13.02 28.59 12.98 28.66C12.95 28.72 12.91 28.78 12.88 28.85C12.85 28.91 12.82 28.98 12.79 29.04C12.76 29.11 12.73 29.17 12.7 29.24C12.68 29.31 12.65 29.38 12.63 29.45C12.61 29.51 12.59 29.58 12.57 29.65C12.55 29.72 12.53 29.79 12.51 29.86C12.5 29.93 12.48 30 12.47 30.07C12.46 30.15 12.45 30.22 12.44 30.29C12.43 30.36 12.42 30.43 12.41 30.5C12.41 30.58 12.4 30.65 12.4 30.72C12.4 30.79 12.4 30.86 12.4 30.94C12.4 31.01 12.41 31.08 12.41 31.15C12.41 31.22 12.42 31.3 12.43 31.37C12.44 31.44 12.45 31.51 12.46 31.58C12.47 31.65 12.49 31.73 12.5 31.8C12.52 31.87 12.53 31.94 12.55 32.01C12.57 32.08 12.59 32.15 12.61 32.21C12.63 32.28 12.66 32.35 12.68 32.42C12.71 32.49 12.74 32.55 12.76 32.62C12.79 32.69 12.82 32.75 12.85 32.82C12.89 32.88 12.92 32.94 12.95 33.01C12.99 33.07 13.03 33.13 13.06 33.19C13.1 33.26 13.14 33.32 13.18 33.38C13.22 33.43 13.27 33.49 13.31 33.55C13.35 33.61 13.4 33.66 13.44 33.72C13.49 33.77 13.54 33.83 13.59 33.88C13.64 33.93 13.69 33.98 13.74 34.04C13.79 34.09 13.84 34.13 13.9 34.18C13.95 34.23 14.01 34.28 14.06 34.32C14.12 34.37 14.18 34.41 14.23 34.45C14.29 34.49 14.35 34.53 14.41 34.57C14.47 34.61 14.53 34.65 14.6 34.69C14.66 34.72 14.72 34.76 14.78 34.79C14.85 34.82 14.91 34.86 14.98 34.89C15.04 34.92 15.11 34.94 15.18 34.97C15.24 35 15.31 35.02 15.38 35.05C15.45 35.07 15.52 35.09 15.58 35.11C15.65 35.13 15.72 35.15 15.79 35.17C15.86 35.18 15.93 35.2 16 35.21C16.07 35.22 16.15 35.24 16.22 35.24C16.29 35.25 16.36 35.26 16.43 35.27C16.5 35.27 16.57 35.28 16.65 35.28C16.72 35.28 16.79 35.29 16.86 35.28C16.93 35.28 17.01 35.28 17.08 35.28C17.15 35.27 17.22 35.27 17.29 35.26Z" fill="#FFFFFF" fill-opacity="1.000000" fill-rule="nonzero"/>
	<path id="path" d="M93.24 23.07C93.37 23.05 93.5 23.03 93.63 23.02C93.75 23.01 93.88 23 94.01 23C94.14 22.99 94.26 22.99 94.39 22.99C94.52 22.99 94.65 23 94.77 23C94.9 23.01 95.03 23.02 95.16 23.03C95.28 23.05 95.41 23.06 95.54 23.08C95.66 23.1 95.79 23.13 95.91 23.15C96.04 23.18 96.16 23.21 96.29 23.24C96.41 23.27 96.53 23.31 96.65 23.35C96.78 23.39 96.9 23.43 97.02 23.47C97.14 23.52 97.26 23.56 97.37 23.61C97.49 23.66 97.61 23.72 97.72 23.77C97.84 23.83 97.95 23.89 98.06 23.95C98.17 24.01 98.29 24.07 98.39 24.14C98.5 24.21 98.61 24.28 98.72 24.35C98.82 24.42 98.93 24.5 99.03 24.58C99.13 24.65 99.23 24.73 99.33 24.82C99.42 24.9 99.52 24.98 99.61 25.07C99.71 25.16 99.8 25.25 99.89 25.34C99.98 25.43 100.07 25.52 100.15 25.62C100.24 25.72 100.32 25.81 100.4 25.91C100.48 26.01 100.56 26.12 100.63 26.22C100.71 26.32 100.78 26.43 100.85 26.54C100.92 26.64 100.99 26.75 101.05 26.86C101.12 26.97 101.18 27.09 101.24 27.2C101.3 27.31 101.35 27.43 101.41 27.55C101.46 27.66 101.51 27.78 101.56 27.9C101.61 28.02 101.65 28.14 101.69 28.26C101.73 28.38 101.77 28.5 101.81 28.63C101.84 28.75 101.88 28.87 101.91 29C101.94 29.12 101.96 29.25 101.99 29.38C102.01 29.5 102.03 29.63 102.05 29.76C102.07 29.88 102.08 30.01 102.09 30.14C102.1 30.27 102.11 30.39 102.12 30.52C102.12 30.65 102.12 30.78 102.12 30.91C102.12 31.04 102.12 31.16 102.11 31.29C102.1 31.42 102.09 31.55 102.08 31.68C102.06 31.8 102.04 31.93 102.02 32.06C102 32.18 101.98 32.31 101.96 32.44C101.93 32.56 101.9 32.69 101.87 32.81C101.83 32.94 101.8 33.06 101.76 33.18C101.72 33.3 101.68 33.43 101.64 33.55C101.59 33.67 101.55 33.79 101.5 33.9C101.44 34.02 101.39 34.14 101.34 34.25C101.28 34.37 101.22 34.48 101.16 34.6C101.1 34.71 101.03 34.82 100.97 34.93C100.9 35.04 100.83 35.15 100.76 35.25C100.69 35.36 100.61 35.46 100.53 35.56C100.46 35.67 100.38 35.77 100.3 35.87C100.21 35.96 100.13 36.06 100.04 36.15C99.95 36.25 99.87 36.34 99.77 36.43C99.68 36.52 99.59 36.61 99.49 36.69C99.4 36.78 99.3 36.86 99.2 36.94C99.1 37.02 99 37.1 98.9 37.17C98.79 37.25 98.69 37.32 98.58 37.39C98.47 37.46 98.36 37.53 98.25 37.59C98.14 37.66 98.03 37.72 97.92 37.78C97.8 37.84 97.69 37.9 97.57 37.95C97.46 38 97.34 38.05 97.22 38.1C97.1 38.15 96.98 38.19 96.86 38.23C96.74 38.28 96.62 38.32 96.5 38.35C96.37 38.39 96.25 38.42 96.13 38.45C96 38.48 95.88 38.51 95.75 38.53C95.63 38.55 95.5 38.57 95.37 38.59C95.25 38.61 95.12 38.62 94.99 38.63C94.87 38.64 94.74 38.65 94.61 38.66C94.48 38.66 94.36 38.66 94.23 38.66C94.1 38.66 93.98 38.65 93.85 38.65C93.72 38.64 93.59 38.63 93.47 38.61C93.34 38.6 93.21 38.58 93.09 38.56C92.96 38.54 92.84 38.52 92.71 38.49C92.59 38.47 92.46 38.44 92.34 38.4C92.22 38.37 92.1 38.34 91.97 38.3C91.85 38.26 91.73 38.22 91.61 38.17C91.49 38.13 91.37 38.08 91.26 38.03C91.14 37.98 91.02 37.93 90.91 37.87C90.8 37.81 90.68 37.76 90.57 37.69C90.46 37.63 90.35 37.57 90.24 37.5C90.13 37.43 90.02 37.36 89.92 37.29C89.81 37.22 89.71 37.14 89.61 37.07C89.51 36.99 89.41 36.91 89.31 36.83C89.21 36.74 89.12 36.66 89.02 36.57C88.93 36.49 88.84 36.4 88.75 36.3C88.66 36.21 88.57 36.12 88.49 36.02C88.41 35.93 88.32 35.83 88.24 35.73C88.16 35.63 88.09 35.53 88.01 35.42C87.94 35.32 87.86 35.22 87.79 35.11C87.73 35 87.66 34.89 87.59 34.78C87.53 34.67 87.47 34.56 87.41 34.45C87.35 34.33 87.29 34.22 87.24 34.1C87.19 33.98 87.14 33.87 87.09 33.75C87.04 33.63 87 33.51 86.96 33.39C86.91 33.27 86.88 33.14 86.84 33.02C86.8 32.9 86.77 32.77 86.74 32.65C86.71 32.53 86.69 32.4 86.66 32.27C86.64 32.15 86.62 32.02 86.6 31.9C86.58 31.77 86.57 31.64 86.56 31.51C86.55 31.39 86.54 31.26 86.53 31.13C86.53 31 86.53 30.87 86.53 30.75C86.53 30.62 86.53 30.49 86.54 30.36C86.55 30.23 86.56 30.11 86.57 29.98C86.59 29.85 86.6 29.73 86.62 29.6C86.64 29.47 86.67 29.35 86.69 29.22C86.72 29.1 86.75 28.97 86.78 28.85C86.81 28.72 86.85 28.6 86.89 28.48C86.92 28.36 86.96 28.23 87.01 28.11C87.05 27.99 87.1 27.88 87.15 27.76C87.2 27.64 87.25 27.52 87.31 27.41C87.36 27.29 87.42 27.18 87.48 27.07C87.54 26.95 87.61 26.84 87.67 26.73C87.74 26.62 87.81 26.52 87.88 26.41C87.95 26.31 88.03 26.2 88.11 26.1C88.18 26 88.26 25.9 88.34 25.8C88.43 25.7 88.51 25.6 88.6 25.51C88.68 25.42 88.77 25.32 88.86 25.23C88.95 25.14 89.05 25.06 89.14 24.97C89.24 24.89 89.33 24.8 89.43 24.72C89.53 24.64 89.63 24.57 89.74 24.49C89.84 24.42 89.94 24.34 90.05 24.27C90.16 24.2 90.27 24.13 90.38 24.07C90.49 24 90.6 23.94 90.71 23.88C90.82 23.82 90.94 23.77 91.05 23.71C91.17 23.66 91.28 23.61 91.4 23.56C91.52 23.51 91.64 23.47 91.76 23.43C91.88 23.38 92 23.34 92.12 23.31C92.25 23.27 92.37 23.24 92.49 23.21C92.62 23.18 92.74 23.15 92.87 23.13C92.99 23.1 93.12 23.08 93.24 23.07ZM94.81 35.25C94.88 35.24 94.95 35.23 95.02 35.22C95.09 35.21 95.16 35.19 95.23 35.18C95.3 35.16 95.37 35.15 95.44 35.13C95.51 35.11 95.58 35.09 95.65 35.07C95.72 35.05 95.79 35.03 95.85 35C95.92 34.98 95.99 34.95 96.05 34.92C96.12 34.89 96.18 34.86 96.25 34.83C96.31 34.8 96.38 34.77 96.44 34.74C96.5 34.7 96.56 34.67 96.63 34.63C96.69 34.59 96.75 34.55 96.81 34.51C96.87 34.47 96.92 34.43 96.98 34.39C97.04 34.34 97.09 34.3 97.15 34.25C97.2 34.21 97.26 34.16 97.31 34.11C97.36 34.06 97.42 34.01 97.47 33.96C97.52 33.91 97.57 33.86 97.61 33.8C97.66 33.75 97.71 33.7 97.75 33.64C97.8 33.58 97.84 33.53 97.88 33.47C97.93 33.41 97.97 33.35 98.01 33.29C98.05 33.23 98.08 33.17 98.12 33.11C98.16 33.05 98.19 32.98 98.23 32.92C98.26 32.86 98.29 32.79 98.32 32.73C98.35 32.66 98.38 32.6 98.41 32.53C98.44 32.46 98.46 32.4 98.49 32.33C98.51 32.26 98.53 32.19 98.55 32.12C98.57 32.05 98.59 31.98 98.61 31.91C98.63 31.84 98.64 31.77 98.66 31.7C98.67 31.63 98.68 31.56 98.69 31.49C98.7 31.42 98.71 31.35 98.72 31.28C98.72 31.21 98.73 31.13 98.73 31.06C98.74 30.99 98.74 30.92 98.74 30.85C98.74 30.77 98.74 30.7 98.73 30.63C98.73 30.56 98.72 30.49 98.72 30.42C98.71 30.34 98.7 30.27 98.69 30.2C98.68 30.13 98.67 30.06 98.65 29.99C98.64 29.92 98.62 29.85 98.61 29.78C98.59 29.71 98.57 29.64 98.55 29.57C98.53 29.5 98.51 29.43 98.48 29.36C98.46 29.3 98.43 29.23 98.41 29.16C98.38 29.1 98.35 29.03 98.32 28.97C98.29 28.9 98.26 28.84 98.22 28.77C98.19 28.71 98.15 28.65 98.12 28.58C98.08 28.52 98.04 28.46 98 28.4C97.96 28.34 97.92 28.28 97.88 28.23C97.84 28.17 97.79 28.11 97.75 28.06C97.7 28 97.66 27.94 97.61 27.89C97.56 27.84 97.51 27.79 97.46 27.73C97.41 27.68 97.36 27.63 97.31 27.58C97.25 27.54 97.2 27.49 97.14 27.44C97.09 27.4 97.03 27.35 96.97 27.31C96.92 27.27 96.86 27.23 96.8 27.18C96.74 27.14 96.68 27.11 96.62 27.07C96.56 27.03 96.49 27 96.43 26.96C96.37 26.93 96.31 26.89 96.24 26.86C96.18 26.83 96.11 26.8 96.04 26.77C95.98 26.75 95.91 26.72 95.84 26.7C95.78 26.67 95.71 26.65 95.64 26.63C95.57 26.61 95.5 26.59 95.43 26.57C95.37 26.55 95.3 26.53 95.23 26.52C95.16 26.51 95.08 26.49 95.01 26.48C94.94 26.47 94.87 26.46 94.8 26.45C94.73 26.45 94.66 26.44 94.59 26.44C94.52 26.43 94.44 26.43 94.37 26.43C94.3 26.43 94.23 26.43 94.16 26.43C94.09 26.44 94.01 26.44 93.94 26.45C93.87 26.45 93.8 26.46 93.73 26.47C93.66 26.48 93.58 26.49 93.51 26.51C93.44 26.52 93.37 26.54 93.3 26.55C93.23 26.57 93.16 26.59 93.09 26.61C93.02 26.63 92.95 26.65 92.89 26.68C92.82 26.7 92.75 26.73 92.68 26.75C92.61 26.78 92.55 26.81 92.48 26.84C92.42 26.87 92.35 26.9 92.29 26.94C92.22 26.97 92.16 27.01 92.1 27.05C92.04 27.08 91.98 27.12 91.91 27.16C91.85 27.2 91.79 27.24 91.74 27.29C91.68 27.33 91.62 27.37 91.56 27.42C91.51 27.46 91.45 27.51 91.4 27.56C91.35 27.61 91.29 27.66 91.24 27.71C91.19 27.76 91.14 27.81 91.09 27.87C91.04 27.92 91 27.98 90.95 28.03C90.9 28.09 90.86 28.15 90.81 28.2C90.77 28.26 90.73 28.32 90.69 28.38C90.65 28.44 90.61 28.5 90.57 28.57C90.53 28.63 90.5 28.69 90.46 28.76C90.43 28.82 90.4 28.88 90.37 28.95C90.34 29.02 90.31 29.08 90.28 29.15C90.25 29.22 90.22 29.28 90.2 29.35C90.18 29.42 90.15 29.49 90.13 29.56C90.11 29.63 90.09 29.7 90.07 29.77C90.06 29.84 90.04 29.91 90.03 29.98C90.01 30.05 90 30.13 89.99 30.2C89.98 30.27 89.97 30.34 89.96 30.41C89.95 30.49 89.95 30.56 89.94 30.63C89.94 30.7 89.94 30.78 89.94 30.85C89.94 30.92 89.94 31 89.94 31.07C89.95 31.14 89.95 31.21 89.96 31.29C89.97 31.36 89.98 31.43 89.99 31.5C90 31.57 90.01 31.65 90.02 31.72C90.04 31.79 90.05 31.86 90.07 31.93C90.09 32 90.11 32.07 90.13 32.14C90.15 32.21 90.17 32.28 90.2 32.35C90.22 32.42 90.25 32.48 90.28 32.55C90.31 32.62 90.34 32.68 90.37 32.75C90.4 32.82 90.43 32.88 90.46 32.94C90.5 33.01 90.53 33.07 90.57 33.13C90.61 33.2 90.65 33.26 90.69 33.32C90.73 33.38 90.77 33.44 90.81 33.5C90.86 33.55 90.9 33.61 90.95 33.67C90.99 33.72 91.04 33.78 91.09 33.83C91.14 33.89 91.19 33.94 91.24 33.99C91.29 34.04 91.35 34.09 91.4 34.14C91.45 34.19 91.51 34.24 91.56 34.28C91.62 34.33 91.68 34.37 91.74 34.41C91.79 34.46 91.85 34.5 91.91 34.54C91.97 34.58 92.04 34.62 92.1 34.66C92.16 34.69 92.22 34.73 92.29 34.76C92.35 34.8 92.42 34.83 92.48 34.86C92.55 34.89 92.61 34.92 92.68 34.95C92.75 34.97 92.82 35 92.88 35.02C92.95 35.05 93.02 35.07 93.09 35.09C93.16 35.11 93.23 35.13 93.3 35.15C93.37 35.16 93.44 35.18 93.51 35.19C93.58 35.21 93.66 35.22 93.73 35.23C93.8 35.24 93.87 35.25 93.94 35.25C94.01 35.26 94.09 35.27 94.16 35.27C94.23 35.27 94.3 35.27 94.38 35.27C94.45 35.27 94.52 35.27 94.59 35.26C94.67 35.26 94.74 35.25 94.81 35.25Z" fill="#FFFFFF" fill-opacity="1.000000" fill-rule="nonzero"/>
	<path id="path" d="M92.74 17.37C94.77 17.04 97.19 17.67 98.99 18.6C101.47 19.87 103.45 22.11 104.28 24.79C104.81 26.51 104.94 28.58 104.09 30.22C104.14 30.02 104.17 29.83 104.16 29.62C104.04 27.19 102.22 24.69 100.47 23.13C98.58 21.62 96.33 20.89 93.92 21C90.71 21.14 88.22 22.75 86.11 25.08C86.12 23.39 86.08 21.92 85.61 20.28C87.79 18.63 90.03 17.71 92.74 17.37Z" fill="#FFFFFF" fill-opacity="1.000000" fill-rule="nonzero"/>
	<path id="path" d="M16.55 17.37C16.65 17.36 16.74 17.35 16.84 17.34C20.19 17.1 23.38 18.43 25.88 20.61C25.34 22.08 25.05 23.5 24.93 25.06C23.52 23.64 22.2 22.37 20.29 21.63C17.49 20.55 14.79 20.95 12.11 22.15C8.73 24.17 7.78 26.67 6.8 30.3C6.4 27.17 6.68 24.16 8.67 21.57C10.63 19.02 13.43 17.76 16.55 17.37Z" fill="#FFFFFF" fill-opacity="1.000000" fill-rule="nonzero"/>
	<path id="path" d="M6.03 12.37C8.68 12.29 11.48 12.27 14.12 12.49C11.54 12.87 8.4 13.32 6.13 14.66C4.02 15.91 2.98 17.99 2.39 20.3C1.95 22.02 1.51 24.58 1.99 26.31C2.13 26.81 2.4 27.24 2.66 27.69C3.5 28.94 4.51 30.11 5.46 31.29C5.11 31.07 4.76 30.85 4.41 30.61C2.65 29.4 0.66 28.17 0.26 25.91C0.24 25.76 0.21 25.62 0.19 25.47C0.17 25.33 0.15 25.18 0.13 25.03C0.11 24.89 0.1 24.74 0.08 24.59C0.07 24.45 0.06 24.3 0.05 24.15C0.03 24.01 0.03 23.86 0.02 23.71C0.01 23.56 0.01 23.42 0 23.27C0 23.12 0 22.98 0 22.83C-0.01 22.68 0 22.53 0 22.39C0 22.24 0.01 22.09 0.02 21.94C0.02 21.8 0.03 21.65 0.04 21.5C0.05 21.36 0.06 21.21 0.08 21.06C0.09 20.92 0.11 20.77 0.13 20.62C0.14 20.48 0.16 20.33 0.18 20.18C0.2 20.04 0.23 19.89 0.25 19.75C0.28 19.6 0.3 19.46 0.33 19.31C0.36 19.17 0.39 19.02 0.42 18.88C0.45 18.74 0.48 18.59 0.52 18.45C0.55 18.31 0.59 18.16 0.63 18.02C0.67 17.88 0.71 17.74 0.75 17.6C0.79 17.45 0.84 17.31 0.88 17.17C0.93 17.03 0.97 16.89 1.02 16.75C1.07 16.62 1.12 16.48 1.17 16.34C1.23 16.2 1.28 16.06 1.33 15.93C1.39 15.79 1.45 15.66 1.51 15.52C1.56 15.39 1.62 15.25 1.69 15.12C1.75 14.98 1.81 14.85 1.88 14.72C1.94 14.59 2.01 14.46 2.08 14.33C2.15 14.19 2.22 14.07 2.29 13.94C2.36 13.81 2.43 13.68 2.51 13.55C2.58 13.43 2.66 13.3 2.73 13.18C2.81 13.05 2.89 12.93 2.97 12.8C3.05 12.68 3.13 12.56 3.22 12.44L6.03 12.37Z" fill="#FFFFFF" fill-opacity="1.000000" fill-rule="nonzero"/>
</svg>
