<svg width="76.000061" height="28.062500" viewBox="0 0 76.0001 28.0625" fill="none" xmlns="http://www.w3.org/2000/svg" xmlns:xlink="http://www.w3.org/1999/xlink">
	<desc>
			Created with Pixso.
	</desc>
	<defs/>
	<path id="path" d="M38.96 7.73L39.1 7.73C41.01 7.7 42.93 7.71 44.85 7.71C47.03 7.71 49.38 7.5 51.5 8.08C51.66 8.13 51.81 8.18 51.97 8.23C52.12 8.28 52.27 8.34 52.42 8.41C52.57 8.47 52.72 8.54 52.87 8.61C53.01 8.68 53.16 8.76 53.3 8.84C53.44 8.92 53.58 9.01 53.71 9.1C53.85 9.19 53.98 9.28 54.11 9.38C54.24 9.48 54.36 9.58 54.49 9.69C54.61 9.79 54.73 9.9 54.85 10.01C54.94 10.1 55.03 10.2 55.11 10.29C55.2 10.38 55.29 10.48 55.37 10.58C55.45 10.68 55.53 10.78 55.61 10.88C55.68 10.98 55.76 11.08 55.83 11.19C55.9 11.29 55.97 11.4 56.04 11.51C56.11 11.62 56.17 11.73 56.23 11.84C56.29 11.95 56.35 12.07 56.41 12.18C56.46 12.3 56.52 12.41 56.57 12.53C56.61 12.65 56.66 12.77 56.71 12.89C56.75 13.01 56.79 13.13 56.83 13.25C56.87 13.37 56.9 13.49 56.93 13.62C56.97 13.74 56.99 13.86 57.02 13.99C57.05 14.11 57.07 14.24 57.09 14.36C57.11 14.49 57.12 14.62 57.14 14.74C57.15 14.87 57.16 15 57.17 15.12C57.17 15.25 57.18 15.38 57.18 15.51C57.18 15.63 57.17 15.76 57.17 15.88C57.16 16.01 57.15 16.14 57.14 16.26C57.12 16.39 57.11 16.51 57.09 16.64C57.07 16.76 57.04 16.89 57.02 17.01C56.99 17.13 56.96 17.26 56.93 17.38C56.9 17.5 56.87 17.62 56.83 17.74C56.79 17.86 56.75 17.98 56.7 18.1C56.66 18.22 56.61 18.34 56.56 18.45C56.51 18.57 56.46 18.68 56.4 18.8C56.35 18.91 56.29 19.02 56.23 19.13C56.17 19.24 56.1 19.35 56.04 19.46C55.97 19.57 55.9 19.67 55.83 19.78C55.75 19.88 55.68 19.98 55.6 20.08C55.52 20.18 55.44 20.28 55.36 20.38C55.28 20.48 55.19 20.57 55.11 20.66C55.02 20.76 54.93 20.85 54.84 20.93C52.11 23.57 48.78 23.32 45.28 23.27C45.23 21.63 45.26 19.99 45.27 18.36C47.08 18.35 49.09 18.67 50.81 17.99C51.07 17.85 51.32 17.66 51.52 17.45C52.1 16.87 52.33 16.13 52.31 15.33C52.29 14.58 52.03 13.89 51.47 13.38C51.1 13.04 50.65 12.82 50.16 12.71C48.74 12.36 45.48 12.54 43.92 12.59C43.92 17.73 44.02 22.89 43.9 28.02C42.25 28.04 40.6 28.04 38.95 28.02L38.96 7.73Z" fill="#3C3C3C" fill-opacity="1.000000" fill-rule="nonzero"/>
	<path id="path" d="M27.89 7.74C29.01 7.63 30.19 7.71 31.32 7.71L37.65 7.74C37.73 9.33 37.66 10.96 37.64 12.55C36.36 12.58 35.09 12.6 33.81 12.58C31.87 12.55 28.43 12.32 26.68 12.86C26.58 12.89 26.48 12.93 26.38 12.96C26.29 13 26.19 13.04 26.09 13.09C26 13.13 25.9 13.17 25.81 13.22C25.72 13.27 25.62 13.32 25.53 13.38C25.44 13.43 25.36 13.49 25.27 13.55C25.18 13.61 25.1 13.67 25.01 13.73C24.93 13.8 24.85 13.86 24.77 13.93C24.69 14 24.62 14.07 24.54 14.15C23.51 15.14 22.98 16.42 22.98 17.84C22.98 17.93 22.98 18.01 22.98 18.1C22.99 18.18 22.99 18.27 23 18.35C23.01 18.44 23.02 18.52 23.03 18.61C23.04 18.69 23.06 18.77 23.07 18.86C23.09 18.94 23.11 19.02 23.13 19.11C23.15 19.19 23.17 19.27 23.2 19.35C23.22 19.43 23.25 19.52 23.28 19.6C23.3 19.68 23.34 19.76 23.37 19.83C23.4 19.91 23.44 19.99 23.47 20.07C23.51 20.14 23.55 20.22 23.59 20.3C23.63 20.37 23.67 20.44 23.72 20.52C23.76 20.59 23.81 20.66 23.86 20.73C23.9 20.8 23.95 20.87 24 20.94C24.06 21.01 24.11 21.08 24.16 21.14C24.22 21.21 24.28 21.27 24.33 21.33C24.39 21.4 24.45 21.46 24.51 21.52C24.6 21.61 24.7 21.69 24.79 21.77C24.89 21.85 24.98 21.93 25.09 22.01C25.19 22.08 25.29 22.16 25.39 22.23C25.5 22.29 25.61 22.36 25.72 22.42C25.83 22.48 25.94 22.54 26.05 22.6C26.17 22.65 26.28 22.7 26.4 22.75C26.52 22.8 26.64 22.84 26.76 22.88C26.88 22.92 27 22.95 27.12 22.98C28.65 23.37 30.41 23.18 31.98 23.17L37.66 23.16C37.76 24.78 37.69 26.42 37.67 28.05L31.95 28.06C28.21 28.06 24.72 28.17 21.69 25.63C21.62 25.58 21.56 25.53 21.49 25.47C21.43 25.42 21.37 25.36 21.3 25.3C21.24 25.25 21.18 25.19 21.12 25.13C21.06 25.07 21 25.02 20.94 24.96C20.88 24.9 20.82 24.84 20.76 24.77C20.71 24.71 20.65 24.65 20.59 24.59C20.54 24.53 20.48 24.46 20.43 24.4C20.37 24.34 20.32 24.27 20.27 24.21C20.21 24.14 20.16 24.08 20.11 24.01C20.06 23.94 20.01 23.88 19.96 23.81C19.91 23.74 19.86 23.67 19.81 23.6C19.76 23.53 19.72 23.46 19.67 23.39C19.63 23.32 19.58 23.25 19.54 23.18C19.49 23.11 19.45 23.04 19.41 22.97C19.36 22.9 19.32 22.82 19.28 22.75C19.24 22.68 19.2 22.6 19.16 22.53C19.12 22.45 19.08 22.38 19.05 22.31C19.01 22.23 18.97 22.15 18.94 22.08C18.9 22 18.87 21.93 18.84 21.85C18.8 21.77 18.77 21.7 18.74 21.62C18.71 21.54 18.68 21.46 18.65 21.38C18.62 21.31 18.59 21.23 18.56 21.15C18.54 21.07 18.51 20.99 18.49 20.91C18.46 20.83 18.44 20.75 18.41 20.67C18.39 20.59 18.37 20.51 18.35 20.43C18.32 20.35 18.3 20.27 18.29 20.18C18.27 20.1 18.25 20.02 18.23 19.94C18.21 19.86 18.2 19.78 18.18 19.69C18.17 19.61 18.15 19.53 18.14 19.45C18.13 19.36 18.11 19.28 18.1 19.2C18.09 19.12 18.08 19.03 18.07 18.95C18.07 18.87 18.06 18.78 18.05 18.7C17.82 16 18.64 13.36 20.42 11.29C22.34 9.05 24.97 7.97 27.89 7.74Z" fill="#3C3C3C" fill-opacity="1.000000" fill-rule="nonzero"/>
	<path id="path" d="M32.97 0.05C33.89 -0.06 34.89 0.01 35.81 0.08C40.86 0.44 45.71 2.07 50.39 3.9C51.88 4.49 53.45 5.37 54.99 5.76C56.35 6.11 57.84 6.12 59.24 6.29C63.39 6.79 71.14 7.81 74.34 10.32C75.26 11.04 75.83 11.95 75.96 13.11C76.19 15.11 75.17 19.66 73.86 21.23C73.11 22.12 71.95 22.36 70.83 22.46C71.83 21.97 72.76 20.17 73.21 19.16C73.88 17.63 74.92 14.19 74.26 12.6C72.95 9.43 62.06 8.38 58.7 8.07C57.27 7.94 55.73 8.01 54.34 7.68C53.32 7.45 52.38 6.8 51.46 6.33C50.51 5.85 49.55 5.41 48.57 5C45.57 3.72 42.45 2.61 39.24 2.03C31.2 0.57 23.11 2.64 15.36 4.58C16.72 4.7 18.12 5.03 19.46 5.3L26.15 6.7C24.92 6.96 23.84 7.52 22.65 7.88C19.63 6.94 16.6 6.38 13.48 5.87C12.35 5.69 11.14 5.4 10 5.49C9.1 5.55 8.2 5.79 7.33 5.98L2.6 7.06C2.71 6.89 2.83 6.72 2.97 6.57C3.78 5.74 6.14 5.18 7.29 4.81C13.63 2.79 20.09 1.23 26.73 0.5C28.8 0.27 30.89 0.15 32.97 0.05Z" fill="#3C3C3C" fill-opacity="1.000000" fill-rule="nonzero"/>
	<path id="path" d="M10.88 15.36C10.97 15.35 11.05 15.34 11.14 15.34C11.23 15.33 11.31 15.33 11.4 15.33C11.49 15.33 11.58 15.33 11.66 15.34C11.75 15.34 11.84 15.35 11.92 15.36C12.01 15.37 12.1 15.38 12.18 15.39C12.27 15.4 12.35 15.42 12.44 15.43C12.52 15.45 12.61 15.47 12.69 15.49C12.78 15.51 12.86 15.53 12.94 15.56C13.03 15.58 13.11 15.61 13.19 15.64C13.27 15.67 13.35 15.7 13.43 15.73C13.51 15.77 13.59 15.8 13.67 15.84C13.75 15.88 13.83 15.91 13.9 15.95C13.98 16 14.06 16.04 14.13 16.08C14.21 16.13 14.28 16.17 14.35 16.22C14.42 16.27 14.49 16.32 14.56 16.37C14.63 16.42 14.7 16.47 14.77 16.53C14.84 16.58 14.9 16.64 14.97 16.7C15.03 16.75 15.09 16.81 15.15 16.87C15.22 16.94 15.28 17 15.33 17.06C15.39 17.13 15.45 17.19 15.5 17.26C15.56 17.32 15.61 17.39 15.66 17.46C15.71 17.53 15.76 17.6 15.81 17.67C15.86 17.74 15.91 17.82 15.95 17.89C16 17.96 16.04 18.04 16.08 18.11C16.12 18.19 16.16 18.27 16.19 18.34C16.23 18.42 16.27 18.5 16.3 18.58C16.33 18.66 16.36 18.74 16.39 18.82C16.42 18.9 16.45 18.98 16.47 19.07C16.5 19.15 16.52 19.23 16.54 19.31C16.56 19.4 16.58 19.48 16.6 19.57C16.61 19.65 16.63 19.73 16.64 19.82C16.65 19.9 16.66 19.99 16.67 20.08C16.68 20.16 16.68 20.25 16.69 20.33C16.69 20.42 16.69 20.5 16.69 20.59C16.69 20.68 16.69 20.76 16.69 20.85C16.68 20.93 16.67 21.02 16.66 21.1C16.66 21.19 16.64 21.27 16.63 21.36C16.62 21.44 16.6 21.53 16.58 21.61C16.57 21.7 16.55 21.78 16.53 21.86C16.5 21.95 16.48 22.03 16.46 22.11C16.43 22.19 16.4 22.27 16.37 22.35C16.34 22.44 16.31 22.52 16.28 22.59C16.24 22.67 16.21 22.75 16.17 22.83C16.13 22.91 16.09 22.98 16.05 23.06C16.01 23.13 15.97 23.21 15.92 23.28C15.87 23.35 15.83 23.43 15.78 23.5C15.73 23.57 15.68 23.64 15.63 23.71C15.57 23.78 15.52 23.84 15.47 23.91C15.41 23.97 15.35 24.04 15.29 24.1C15.23 24.17 15.17 24.23 15.11 24.29C15.05 24.35 14.99 24.41 14.92 24.46C14.86 24.52 14.79 24.58 14.72 24.63C14.66 24.68 14.59 24.74 14.52 24.79C14.45 24.84 14.37 24.89 14.3 24.93C14.23 24.98 14.15 25.02 14.08 25.07C14 25.11 13.93 25.15 13.85 25.19C13.77 25.23 13.7 25.27 13.62 25.31C13.54 25.34 13.46 25.38 13.38 25.41C13.3 25.44 13.22 25.47 13.13 25.5C13.05 25.53 12.97 25.55 12.89 25.58C12.8 25.6 12.72 25.62 12.63 25.64C12.55 25.66 12.46 25.68 12.38 25.7C12.29 25.71 12.21 25.73 12.12 25.74C12.04 25.75 11.95 25.76 11.86 25.77C11.78 25.78 11.69 25.78 11.6 25.78C11.52 25.79 11.43 25.79 11.35 25.79C11.26 25.79 11.17 25.78 11.09 25.78C11 25.77 10.91 25.77 10.83 25.76C10.74 25.75 10.66 25.74 10.57 25.72C10.49 25.71 10.4 25.7 10.32 25.68C10.23 25.66 10.15 25.64 10.06 25.62C9.98 25.6 9.9 25.58 9.82 25.55C9.73 25.52 9.65 25.5 9.57 25.47C9.49 25.44 9.41 25.41 9.33 25.37C9.25 25.34 9.17 25.3 9.09 25.27C9.02 25.23 8.94 25.19 8.86 25.15C8.79 25.11 8.71 25.07 8.64 25.02C8.56 24.98 8.49 24.93 8.42 24.88C8.35 24.84 8.28 24.79 8.21 24.73C8.14 24.68 8.07 24.63 8.01 24.58C7.94 24.52 7.88 24.46 7.81 24.41C7.75 24.35 7.69 24.29 7.63 24.23C7.57 24.17 7.51 24.11 7.45 24.04C7.39 23.98 7.34 23.91 7.28 23.85C7.23 23.78 7.17 23.71 7.12 23.65C7.07 23.58 7.02 23.51 6.98 23.43C6.93 23.36 6.88 23.29 6.84 23.22C6.79 23.14 6.75 23.07 6.71 22.99C6.67 22.92 6.63 22.84 6.6 22.77C6.56 22.69 6.53 22.61 6.49 22.53C6.46 22.45 6.43 22.37 6.4 22.29C6.37 22.21 6.35 22.13 6.32 22.05C6.3 21.97 6.27 21.88 6.25 21.8C6.23 21.72 6.22 21.64 6.2 21.55C6.18 21.47 6.17 21.38 6.16 21.3C6.14 21.21 6.13 21.13 6.13 21.04C6.12 20.96 6.11 20.87 6.11 20.79C6.1 20.7 6.1 20.62 6.1 20.53C6.1 20.45 6.11 20.36 6.11 20.28C6.12 20.19 6.12 20.11 6.13 20.02C6.14 19.94 6.15 19.85 6.16 19.77C6.18 19.69 6.19 19.6 6.21 19.52C6.23 19.43 6.25 19.35 6.27 19.27C6.29 19.19 6.31 19.1 6.34 19.02C6.36 18.94 6.39 18.86 6.42 18.78C6.45 18.7 6.48 18.62 6.51 18.54C6.55 18.46 6.58 18.38 6.62 18.31C6.66 18.23 6.7 18.15 6.74 18.08C6.78 18 6.82 17.93 6.87 17.86C6.91 17.78 6.96 17.71 7 17.64C7.05 17.57 7.1 17.5 7.15 17.43C7.21 17.36 7.26 17.3 7.31 17.23C7.37 17.17 7.43 17.1 7.48 17.04C7.54 16.98 7.6 16.91 7.66 16.85C7.72 16.79 7.79 16.73 7.85 16.68C7.92 16.62 7.98 16.57 8.05 16.51C8.11 16.46 8.18 16.4 8.25 16.35C8.32 16.3 8.39 16.25 8.46 16.21C8.54 16.16 8.61 16.11 8.68 16.07C8.76 16.03 8.83 15.99 8.91 15.95C8.99 15.91 9.06 15.87 9.14 15.83C9.22 15.79 9.3 15.76 9.38 15.73C9.46 15.69 9.54 15.66 9.62 15.64C9.7 15.61 9.78 15.58 9.87 15.56C9.95 15.53 10.03 15.51 10.12 15.49C10.2 15.47 10.28 15.45 10.37 15.43C10.45 15.42 10.54 15.4 10.62 15.39C10.71 15.38 10.8 15.37 10.88 15.36ZM11.73 23.5C11.78 23.5 11.83 23.49 11.88 23.48C11.93 23.48 11.97 23.47 12.02 23.46C12.07 23.45 12.12 23.44 12.17 23.42C12.21 23.41 12.26 23.4 12.31 23.38C12.35 23.37 12.4 23.35 12.45 23.34C12.49 23.32 12.54 23.3 12.58 23.28C12.63 23.26 12.67 23.24 12.72 23.22C12.76 23.2 12.8 23.18 12.85 23.15C12.89 23.13 12.93 23.11 12.97 23.08C13.02 23.05 13.06 23.03 13.1 23C13.14 22.97 13.18 22.94 13.22 22.92C13.26 22.89 13.29 22.86 13.33 22.82C13.37 22.79 13.41 22.76 13.44 22.73C13.48 22.69 13.51 22.66 13.55 22.63C13.58 22.59 13.61 22.56 13.65 22.52C13.68 22.48 13.71 22.45 13.74 22.41C13.77 22.37 13.8 22.33 13.83 22.29C13.86 22.25 13.89 22.21 13.91 22.17C13.94 22.13 13.97 22.09 13.99 22.05C14.01 22.01 14.04 21.96 14.06 21.92C14.08 21.88 14.1 21.83 14.12 21.79C14.14 21.75 14.16 21.7 14.18 21.66C14.2 21.61 14.22 21.57 14.23 21.52C14.25 21.47 14.26 21.43 14.28 21.38C14.29 21.33 14.3 21.29 14.31 21.24C14.32 21.19 14.33 21.15 14.34 21.1C14.35 21.05 14.36 21 14.37 20.95C14.37 20.91 14.38 20.86 14.38 20.81C14.39 20.76 14.39 20.71 14.39 20.66C14.39 20.62 14.39 20.57 14.39 20.52C14.39 20.47 14.39 20.42 14.39 20.37C14.38 20.33 14.38 20.28 14.37 20.23C14.37 20.18 14.36 20.13 14.35 20.08C14.34 20.04 14.33 19.99 14.32 19.94C14.31 19.89 14.3 19.85 14.29 19.8C14.28 19.75 14.26 19.71 14.25 19.66C14.23 19.62 14.22 19.57 14.2 19.52C14.18 19.48 14.16 19.43 14.14 19.39C14.12 19.35 14.1 19.3 14.08 19.26C14.06 19.21 14.04 19.17 14.01 19.13C13.99 19.09 13.96 19.05 13.94 19C13.91 18.96 13.88 18.92 13.86 18.88C13.83 18.84 13.8 18.8 13.77 18.77C13.74 18.73 13.71 18.69 13.68 18.65C13.64 18.62 13.61 18.58 13.58 18.54C13.54 18.51 13.51 18.47 13.47 18.44C13.44 18.41 13.4 18.37 13.36 18.34C13.33 18.31 13.29 18.28 13.25 18.25C13.21 18.22 13.17 18.19 13.13 18.16C13.09 18.14 13.05 18.11 13.01 18.08C12.97 18.06 12.93 18.03 12.89 18.01C12.84 17.98 12.8 17.96 12.76 17.94C12.71 17.92 12.67 17.9 12.62 17.88C12.58 17.86 12.53 17.84 12.49 17.82C12.44 17.8 12.4 17.79 12.35 17.77C12.3 17.75 12.26 17.74 12.21 17.73C12.16 17.71 12.11 17.7 12.07 17.69C12.02 17.68 11.97 17.67 11.92 17.66C11.87 17.65 11.82 17.65 11.78 17.64C11.73 17.64 11.68 17.63 11.63 17.63C11.58 17.62 11.53 17.62 11.48 17.62C11.43 17.62 11.38 17.62 11.33 17.62C11.29 17.62 11.24 17.62 11.19 17.63C11.14 17.63 11.09 17.63 11.04 17.64C10.99 17.65 10.94 17.65 10.9 17.66C10.85 17.67 10.8 17.68 10.75 17.69C10.71 17.7 10.66 17.71 10.61 17.72C10.56 17.74 10.52 17.75 10.47 17.76C10.42 17.78 10.38 17.8 10.33 17.81C10.29 17.83 10.24 17.85 10.2 17.87C10.15 17.89 10.11 17.91 10.07 17.93C10.02 17.95 9.98 17.97 9.94 18C9.89 18.02 9.85 18.05 9.81 18.07C9.77 18.1 9.73 18.12 9.69 18.15C9.65 18.18 9.61 18.21 9.57 18.24C9.53 18.27 9.49 18.3 9.46 18.33C9.42 18.36 9.38 18.39 9.35 18.42C9.31 18.46 9.28 18.49 9.25 18.53C9.21 18.56 9.18 18.6 9.15 18.63C9.11 18.67 9.08 18.71 9.05 18.74C9.02 18.78 8.99 18.82 8.97 18.86C8.94 18.9 8.91 18.94 8.88 18.98C8.86 19.02 8.83 19.06 8.81 19.1C8.78 19.14 8.76 19.19 8.74 19.23C8.72 19.27 8.7 19.32 8.68 19.36C8.66 19.4 8.64 19.45 8.62 19.49C8.6 19.54 8.58 19.58 8.57 19.63C8.55 19.67 8.54 19.72 8.53 19.77C8.51 19.81 8.5 19.86 8.49 19.91C8.48 19.95 8.47 20 8.46 20.05C8.45 20.1 8.44 20.14 8.44 20.19C8.43 20.24 8.43 20.29 8.42 20.33C8.42 20.38 8.42 20.43 8.41 20.48C8.41 20.53 8.41 20.57 8.41 20.62C8.41 20.67 8.42 20.72 8.42 20.77C8.42 20.81 8.43 20.86 8.43 20.91C8.44 20.96 8.45 21.01 8.45 21.05C8.46 21.1 8.47 21.15 8.48 21.2C8.49 21.24 8.5 21.29 8.52 21.34C8.53 21.38 8.54 21.43 8.56 21.47C8.57 21.52 8.59 21.57 8.6 21.61C8.62 21.66 8.64 21.7 8.66 21.74C8.68 21.79 8.7 21.83 8.72 21.88C8.74 21.92 8.77 21.96 8.79 22C8.81 22.05 8.84 22.09 8.86 22.13C8.89 22.17 8.92 22.21 8.94 22.25C8.97 22.29 9 22.33 9.03 22.37C9.06 22.4 9.09 22.44 9.12 22.48C9.15 22.51 9.19 22.55 9.22 22.59C9.25 22.62 9.29 22.65 9.32 22.69C9.36 22.72 9.39 22.75 9.43 22.79C9.47 22.82 9.5 22.85 9.54 22.88C9.58 22.91 9.62 22.94 9.66 22.97C9.7 22.99 9.74 23.02 9.78 23.05C9.82 23.07 9.86 23.1 9.9 23.12C9.94 23.15 9.99 23.17 10.03 23.19C10.07 23.21 10.12 23.24 10.16 23.26C10.21 23.28 10.25 23.29 10.3 23.31C10.34 23.33 10.39 23.35 10.43 23.36C10.48 23.38 10.53 23.39 10.57 23.41C10.62 23.42 10.67 23.43 10.72 23.44C10.76 23.45 10.81 23.46 10.86 23.47C10.91 23.48 10.95 23.49 11 23.49C11.05 23.5 11.1 23.51 11.15 23.51C11.2 23.51 11.25 23.52 11.29 23.52C11.34 23.52 11.39 23.52 11.44 23.52C11.49 23.52 11.54 23.52 11.59 23.52C11.63 23.51 11.68 23.51 11.73 23.5Z" fill="#3C3C3C" fill-opacity="1.000000" fill-rule="nonzero"/>
	<path id="path" d="M63.27 15.38C63.36 15.36 63.44 15.35 63.53 15.35C63.62 15.34 63.7 15.33 63.79 15.33C63.88 15.33 63.96 15.32 64.05 15.33C64.14 15.33 64.22 15.33 64.31 15.33C64.4 15.34 64.48 15.35 64.57 15.35C64.65 15.36 64.74 15.37 64.83 15.39C64.91 15.4 65 15.42 65.08 15.43C65.17 15.45 65.25 15.47 65.34 15.49C65.42 15.51 65.5 15.54 65.58 15.56C65.67 15.59 65.75 15.62 65.83 15.65C65.91 15.68 65.99 15.71 66.07 15.74C66.15 15.77 66.23 15.81 66.31 15.85C66.39 15.88 66.46 15.92 66.54 15.96C66.62 16.01 66.69 16.05 66.77 16.09C66.84 16.14 66.91 16.18 66.98 16.23C67.06 16.28 67.13 16.33 67.2 16.38C67.26 16.43 67.33 16.49 67.4 16.54C67.47 16.6 67.53 16.65 67.59 16.71C67.66 16.77 67.72 16.83 67.78 16.89C67.84 16.95 67.9 17.01 67.96 17.08C68.02 17.14 68.07 17.21 68.13 17.27C68.18 17.34 68.23 17.41 68.28 17.48C68.34 17.55 68.38 17.62 68.43 17.69C68.48 17.76 68.52 17.83 68.57 17.91C68.61 17.98 68.65 18.06 68.69 18.13C68.73 18.21 68.77 18.28 68.81 18.36C68.85 18.44 68.88 18.52 68.91 18.6C68.94 18.68 68.98 18.76 69 18.84C69.03 18.92 69.06 19 69.08 19.08C69.11 19.17 69.13 19.25 69.15 19.33C69.17 19.41 69.19 19.5 69.2 19.58C69.22 19.67 69.23 19.75 69.25 19.84C69.26 19.92 69.27 20.01 69.27 20.09C69.28 20.18 69.29 20.26 69.29 20.35C69.29 20.43 69.3 20.52 69.29 20.6C69.29 20.69 69.29 20.77 69.29 20.86C69.28 20.95 69.27 21.03 69.26 21.12C69.25 21.2 69.24 21.29 69.23 21.37C69.22 21.46 69.2 21.54 69.18 21.62C69.16 21.71 69.14 21.79 69.12 21.87C69.1 21.96 69.08 22.04 69.05 22.12C69.02 22.2 69 22.28 68.97 22.36C68.94 22.44 68.9 22.52 68.87 22.6C68.84 22.68 68.8 22.76 68.76 22.83C68.72 22.91 68.68 22.99 68.64 23.06C68.6 23.14 68.56 23.21 68.51 23.28C68.47 23.36 68.42 23.43 68.37 23.5C68.32 23.57 68.27 23.64 68.22 23.71C68.17 23.78 68.11 23.84 68.06 23.91C68 23.97 67.94 24.04 67.88 24.1C67.82 24.16 67.76 24.23 67.7 24.28C67.64 24.34 67.58 24.4 67.51 24.46C67.45 24.52 67.38 24.57 67.31 24.63C67.25 24.68 67.18 24.73 67.11 24.78C67.04 24.83 66.96 24.88 66.89 24.93C66.82 24.97 66.75 25.02 66.67 25.06C66.6 25.1 66.52 25.15 66.44 25.18C66.37 25.22 66.29 25.26 66.21 25.3C66.13 25.33 66.05 25.37 65.97 25.4C65.89 25.43 65.81 25.46 65.73 25.49C65.64 25.52 65.56 25.54 65.48 25.57C65.4 25.59 65.31 25.61 65.23 25.63C65.14 25.65 65.06 25.67 64.97 25.68C64.89 25.7 64.8 25.71 64.72 25.73C64.63 25.74 64.54 25.75 64.46 25.75C64.37 25.76 64.29 25.77 64.2 25.77C64.11 25.77 64.03 25.77 63.94 25.77C63.85 25.77 63.77 25.77 63.68 25.76C63.59 25.76 63.51 25.75 63.42 25.74C63.34 25.73 63.25 25.72 63.17 25.71C63.08 25.69 63 25.68 62.91 25.66C62.83 25.64 62.74 25.62 62.66 25.6C62.57 25.58 62.49 25.56 62.41 25.53C62.33 25.5 62.24 25.48 62.16 25.45C62.08 25.42 62 25.39 61.92 25.35C61.84 25.32 61.76 25.28 61.69 25.25C61.61 25.21 61.53 25.17 61.46 25.13C61.38 25.09 61.31 25.04 61.23 25C61.16 24.95 61.09 24.91 61.02 24.86C60.94 24.81 60.87 24.76 60.8 24.71C60.74 24.66 60.67 24.6 60.6 24.55C60.54 24.49 60.47 24.44 60.41 24.38C60.34 24.32 60.28 24.26 60.22 24.2C60.16 24.14 60.1 24.08 60.05 24.01C59.99 23.95 59.93 23.88 59.88 23.82C59.82 23.75 59.77 23.68 59.72 23.61C59.67 23.55 59.62 23.48 59.57 23.4C59.53 23.33 59.48 23.26 59.44 23.19C59.39 23.11 59.35 23.04 59.31 22.96C59.27 22.89 59.23 22.81 59.2 22.73C59.16 22.65 59.13 22.58 59.1 22.5C59.06 22.42 59.03 22.34 59 22.26C58.98 22.18 58.95 22.09 58.93 22.01C58.9 21.93 58.88 21.85 58.86 21.77C58.84 21.68 58.82 21.6 58.8 21.51C58.79 21.43 58.77 21.35 58.76 21.26C58.75 21.18 58.74 21.09 58.73 21.01C58.73 20.92 58.72 20.84 58.72 20.75C58.71 20.67 58.71 20.58 58.71 20.5C58.71 20.41 58.72 20.33 58.72 20.24C58.73 20.15 58.74 20.07 58.74 19.98C58.75 19.9 58.77 19.82 58.78 19.73C58.79 19.65 58.81 19.56 58.83 19.48C58.84 19.4 58.86 19.31 58.89 19.23C58.91 19.15 58.93 19.07 58.96 18.98C58.98 18.9 59.01 18.82 59.04 18.74C59.07 18.66 59.1 18.58 59.14 18.5C59.17 18.42 59.21 18.35 59.24 18.27C59.28 18.19 59.32 18.12 59.36 18.04C59.4 17.97 59.45 17.89 59.49 17.82C59.54 17.75 59.58 17.68 59.63 17.61C59.68 17.54 59.73 17.47 59.78 17.4C59.84 17.33 59.89 17.26 59.95 17.2C60 17.13 60.06 17.07 60.12 17.01C60.18 16.94 60.24 16.88 60.3 16.82C60.36 16.76 60.42 16.7 60.49 16.65C60.55 16.59 60.62 16.53 60.68 16.48C60.75 16.43 60.82 16.38 60.89 16.33C60.96 16.28 61.03 16.23 61.1 16.18C61.18 16.13 61.25 16.09 61.32 16.04C61.4 16 61.47 15.96 61.55 15.92C61.63 15.88 61.71 15.84 61.78 15.81C61.86 15.77 61.94 15.74 62.02 15.71C62.1 15.67 62.18 15.64 62.26 15.62C62.35 15.59 62.43 15.56 62.51 15.54C62.59 15.51 62.68 15.49 62.76 15.47C62.85 15.45 62.93 15.43 63.02 15.42C63.1 15.4 63.19 15.39 63.27 15.38ZM64.33 23.5C64.38 23.49 64.43 23.48 64.48 23.48C64.53 23.47 64.57 23.46 64.62 23.45C64.67 23.44 64.72 23.43 64.76 23.42C64.81 23.41 64.86 23.39 64.9 23.38C64.95 23.36 65 23.35 65.04 23.33C65.09 23.32 65.13 23.3 65.18 23.28C65.22 23.26 65.27 23.24 65.31 23.22C65.35 23.2 65.4 23.18 65.44 23.16C65.48 23.13 65.52 23.11 65.57 23.08C65.61 23.06 65.65 23.03 65.69 23.01C65.73 22.98 65.77 22.95 65.81 22.92C65.85 22.89 65.88 22.86 65.92 22.83C65.96 22.8 66 22.77 66.03 22.74C66.07 22.71 66.1 22.67 66.14 22.64C66.17 22.6 66.2 22.57 66.24 22.53C66.27 22.5 66.3 22.46 66.33 22.42C66.36 22.39 66.39 22.35 66.42 22.31C66.45 22.27 66.48 22.23 66.5 22.19C66.53 22.15 66.56 22.11 66.58 22.07C66.61 22.03 66.63 21.99 66.65 21.95C66.67 21.9 66.7 21.86 66.72 21.82C66.74 21.77 66.76 21.73 66.78 21.68C66.79 21.64 66.81 21.6 66.83 21.55C66.84 21.51 66.86 21.46 66.87 21.41C66.89 21.37 66.9 21.32 66.91 21.27C66.92 21.23 66.93 21.18 66.94 21.13C66.95 21.09 66.96 21.04 66.97 20.99C66.98 20.95 66.98 20.9 66.99 20.85C66.99 20.8 66.99 20.75 67 20.71C67 20.66 67 20.61 67 20.56C67 20.51 67 20.47 67 20.42C66.99 20.37 66.99 20.32 66.99 20.28C66.98 20.23 66.97 20.18 66.97 20.13C66.96 20.08 66.95 20.04 66.94 19.99C66.93 19.94 66.92 19.9 66.91 19.85C66.9 19.8 66.89 19.76 66.87 19.71C66.86 19.67 66.84 19.62 66.83 19.57C66.81 19.53 66.79 19.48 66.77 19.44C66.76 19.4 66.74 19.35 66.71 19.31C66.69 19.27 66.67 19.22 66.65 19.18C66.63 19.14 66.6 19.1 66.58 19.05C66.55 19.01 66.53 18.97 66.5 18.93C66.47 18.89 66.45 18.85 66.42 18.82C66.39 18.78 66.36 18.74 66.33 18.7C66.3 18.66 66.26 18.63 66.23 18.59C66.2 18.56 66.17 18.52 66.13 18.49C66.1 18.45 66.06 18.42 66.03 18.39C65.99 18.36 65.95 18.32 65.92 18.29C65.88 18.26 65.84 18.23 65.8 18.2C65.76 18.18 65.72 18.15 65.68 18.12C65.64 18.09 65.6 18.07 65.56 18.04C65.52 18.02 65.48 18 65.43 17.97C65.39 17.95 65.35 17.93 65.3 17.91C65.26 17.89 65.22 17.87 65.17 17.85C65.13 17.83 65.08 17.81 65.04 17.8C64.99 17.78 64.94 17.76 64.9 17.75C64.85 17.74 64.8 17.72 64.76 17.71C64.71 17.7 64.66 17.69 64.62 17.68C64.57 17.67 64.52 17.66 64.47 17.65C64.42 17.65 64.38 17.64 64.33 17.63C64.28 17.63 64.23 17.62 64.18 17.62C64.13 17.62 64.09 17.62 64.04 17.62C63.99 17.62 63.94 17.62 63.89 17.62C63.84 17.62 63.79 17.63 63.75 17.63C63.7 17.63 63.65 17.64 63.6 17.65C63.55 17.65 63.5 17.66 63.45 17.67C63.41 17.68 63.36 17.69 63.31 17.7C63.26 17.71 63.21 17.72 63.17 17.74C63.12 17.75 63.07 17.77 63.03 17.78C62.98 17.8 62.94 17.82 62.89 17.83C62.84 17.85 62.8 17.87 62.75 17.89C62.71 17.91 62.67 17.93 62.62 17.96C62.58 17.98 62.54 18 62.49 18.03C62.45 18.05 62.41 18.08 62.37 18.11C62.33 18.13 62.29 18.16 62.25 18.19C62.21 18.22 62.17 18.25 62.13 18.28C62.09 18.31 62.06 18.34 62.02 18.37C61.98 18.4 61.95 18.44 61.91 18.47C61.88 18.51 61.84 18.54 61.81 18.58C61.78 18.61 61.75 18.65 61.71 18.69C61.68 18.72 61.65 18.76 61.62 18.8C61.59 18.84 61.56 18.88 61.54 18.92C61.51 18.96 61.48 19 61.46 19.04C61.43 19.08 61.41 19.13 61.39 19.17C61.36 19.21 61.34 19.25 61.32 19.3C61.3 19.34 61.28 19.39 61.26 19.43C61.24 19.48 61.22 19.52 61.21 19.57C61.19 19.61 61.17 19.66 61.16 19.7C61.14 19.75 61.13 19.8 61.12 19.84C61.11 19.89 61.1 19.94 61.09 19.99C61.08 20.03 61.07 20.08 61.06 20.13C61.05 20.18 61.05 20.23 61.04 20.27C61.04 20.32 61.03 20.37 61.03 20.42C61.03 20.47 61.03 20.52 61.03 20.56C61.03 20.61 61.03 20.66 61.03 20.71C61.03 20.76 61.04 20.81 61.04 20.86C61.05 20.9 61.05 20.95 61.06 21C61.07 21.05 61.08 21.1 61.09 21.14C61.1 21.19 61.11 21.24 61.12 21.28C61.13 21.33 61.14 21.38 61.16 21.43C61.17 21.47 61.19 21.52 61.21 21.56C61.22 21.61 61.24 21.65 61.26 21.7C61.28 21.74 61.3 21.79 61.32 21.83C61.34 21.88 61.36 21.92 61.38 21.96C61.41 22 61.43 22.05 61.46 22.09C61.48 22.13 61.51 22.17 61.54 22.21C61.56 22.25 61.59 22.29 61.62 22.33C61.65 22.37 61.68 22.41 61.71 22.44C61.74 22.48 61.78 22.52 61.81 22.55C61.84 22.59 61.88 22.62 61.91 22.66C61.95 22.69 61.98 22.73 62.02 22.76C62.06 22.79 62.09 22.82 62.13 22.85C62.17 22.88 62.21 22.91 62.25 22.94C62.29 22.97 62.33 23 62.37 23.02C62.41 23.05 62.45 23.08 62.49 23.1C62.54 23.13 62.58 23.15 62.62 23.17C62.67 23.2 62.71 23.22 62.75 23.24C62.8 23.26 62.84 23.28 62.89 23.3C62.93 23.31 62.98 23.33 63.03 23.35C63.07 23.36 63.12 23.38 63.17 23.39C63.21 23.41 63.26 23.42 63.31 23.43C63.36 23.44 63.41 23.45 63.45 23.46C63.5 23.47 63.55 23.48 63.6 23.48C63.65 23.49 63.7 23.5 63.75 23.5C63.79 23.51 63.84 23.51 63.89 23.51C63.94 23.51 63.99 23.51 64.04 23.51C64.09 23.51 64.14 23.51 64.19 23.51C64.24 23.51 64.28 23.5 64.33 23.5Z" fill="#3C3C3C" fill-opacity="1.000000" fill-rule="nonzero"/>
	<path id="path" d="M62.93 11.58C64.3 11.36 65.95 11.78 67.17 12.4C68.85 13.24 70.2 14.74 70.76 16.52C71.12 17.67 71.21 19.05 70.63 20.14C70.66 20.01 70.69 19.88 70.68 19.74C70.6 18.12 69.36 16.46 68.17 15.42C66.89 14.41 65.36 13.93 63.73 14C61.55 14.09 59.86 15.17 58.43 16.72C58.44 15.59 58.41 14.61 58.09 13.52C59.57 12.42 61.09 11.81 62.93 11.58Z" fill="#3C3C3C" fill-opacity="1.000000" fill-rule="nonzero"/>
	<path id="path" d="M11.23 11.58C11.29 11.57 11.36 11.56 11.43 11.56C13.7 11.4 15.86 12.28 17.56 13.74C17.19 14.72 17 15.66 16.91 16.7C15.96 15.76 15.06 14.91 13.77 14.42C11.87 13.7 10.03 13.96 8.22 14.76C5.92 16.11 5.28 17.78 4.61 20.2C4.34 18.11 4.53 16.11 5.88 14.38C7.21 12.68 9.11 11.84 11.23 11.58Z" fill="#3C3C3C" fill-opacity="1.000000" fill-rule="nonzero"/>
	<path id="path" d="M4.09 8.25C5.89 8.19 7.79 8.18 9.58 8.32C7.83 8.58 5.7 8.88 4.16 9.77C2.73 10.6 2.02 11.99 1.62 13.53C1.32 14.68 1.02 16.38 1.35 17.54C1.44 17.87 1.63 18.16 1.8 18.46C2.37 19.29 3.06 20.07 3.71 20.86C3.46 20.71 3.23 20.56 2.99 20.4C1.8 19.6 0.45 18.78 0.18 17.27C0.16 17.17 0.14 17.08 0.13 16.98C0.11 16.88 0.1 16.78 0.09 16.69C0.08 16.59 0.06 16.49 0.05 16.39C0.05 16.3 0.04 16.2 0.03 16.1C0.02 16 0.02 15.9 0.01 15.81C0.01 15.71 0 15.61 0 15.51C0 15.41 0 15.32 0 15.22C-0.01 15.12 0 15.02 0 14.92C0 14.82 0 14.73 0.01 14.63C0.01 14.53 0.02 14.43 0.03 14.33C0.03 14.24 0.04 14.14 0.05 14.04C0.06 13.94 0.07 13.84 0.08 13.75C0.1 13.65 0.11 13.55 0.12 13.45C0.14 13.36 0.15 13.26 0.17 13.16C0.19 13.07 0.2 12.97 0.22 12.87C0.24 12.78 0.26 12.68 0.28 12.58C0.3 12.49 0.33 12.39 0.35 12.3C0.37 12.2 0.4 12.11 0.43 12.01C0.45 11.92 0.48 11.82 0.51 11.73C0.54 11.63 0.57 11.54 0.6 11.45C0.63 11.35 0.66 11.26 0.69 11.17C0.73 11.08 0.76 10.98 0.79 10.89C0.83 10.8 0.87 10.71 0.9 10.62C0.94 10.53 0.98 10.44 1.02 10.35C1.06 10.26 1.1 10.17 1.14 10.08C1.18 9.99 1.23 9.9 1.27 9.81C1.32 9.72 1.36 9.64 1.41 9.55C1.45 9.46 1.5 9.38 1.55 9.29C1.6 9.2 1.65 9.12 1.7 9.03C1.75 8.95 1.8 8.87 1.85 8.78C1.91 8.7 1.96 8.62 2.01 8.53C2.07 8.45 2.12 8.37 2.18 8.29L4.09 8.25Z" fill="#3C3C3C" fill-opacity="1.000000" fill-rule="nonzero"/>
</svg>
